<svg xmlns="http://www.w3.org/2000/svg" width="196" zoomAndPan="magnify" viewBox="0 0 147 104.999996" height="140" preserveAspectRatio="xMidYMid meet" version="1.0">
  <defs>
    <linearGradient id="half-grass" x1="0" y1="0" x2="1" y2="1">
      <stop offset="0" stop-color="#73d489"/>
      <stop offset="1" stop-color="#43a85e"/>
    </linearGradient>
    <pattern id="half-stripes" width="18" height="95" patternUnits="userSpaceOnUse">
      <rect width="9" height="95" fill="#ffffff" opacity="0.08"/>
    </pattern>
  </defs>
  <rect width="147" height="104.999996" fill="#f8fafc"/>
  <rect x="5" y="5" width="137" height="95" rx="3" fill="url(#half-grass)"/>
  <rect x="5" y="5" width="137" height="95" rx="3" fill="url(#half-stripes)"/>
  <g fill="none" stroke="#ffffff" stroke-linecap="round" stroke-linejoin="round">
    <rect x="5" y="5" width="137" height="95" rx="3" stroke-width="1.5"/>
    <line x1="5" y1="100" x2="142" y2="100" stroke-width="1.25"/>
    <path d="M 53.5 100 A 20 20 0 0 1 93.5 100" stroke-width="1.15"/>
    <rect x="31" y="5" width="85" height="36" stroke-width="1.25"/>
    <rect x="53" y="5" width="41" height="13" stroke-width="1.25"/>
    <path d="M 62.5 41 A 12 12 0 0 0 84.5 41" stroke-width="1.15"/>
    <path d="M 5 13 A 8 8 0 0 0 13 5 M 134 5 A 8 8 0 0 0 142 13" stroke-width="0.9" opacity="0.9"/>
  </g>
  <g fill="#ffffff">
    <circle cx="73.5" cy="29" r="1.05"/>
    <circle cx="73.5" cy="100" r="1.05"/>
  </g>
  <rect x="61.5" y="2.8" width="24" height="2.7" rx="0.7" fill="#e5e7eb" stroke="#ffffff" stroke-width="0.7"/>
</svg>
