<svg xmlns="http://www.w3.org/2000/svg" viewBox="0 0 1005.000000 120.000000" width="1005" height="120">
  <g transform="translate(0.000000,120.000000) scale(1.000000,-1.000000)"
fill="#000000" stroke="none">
    <path fill="#001848" stroke="none" d="M26 104 c-7 -5 -7 -15 0 -20 5 -3 10 -3 14 1 4 4 6 8 4 12 -3 8 -11
11 -18 7z m11 -4 c3 -2 4 -8 1 -11 -3 -5 -9 -4 -12 1 -4 8 5 15 11 10z M58
105 c-1 0 -1 -5 -1 -12 0 -11 0 -11 2 -11 2 0 3 1 3 8 l1 7 5 -8 c8 -10 9 -10
9 5 0 11 0 12 -2 12 -2 0 -2 -1 -2 -8 l0 -7 -6 7 c-6 7 -8 9 -9 7z M91 94 l0
-12 9 0 c8 0 8 0 8 2 0 2 -1 2 -7 2 l-6 0 0 3 c0 3 0 3 6 3 4 0 6 1 6 2 0 1
-2 2 -6 2 -6 0 -6 0 -6 2 0 2 1 3 6 3 7 1 7 1 7 3 -1 2 -3 2 -9 2 l-8 0 0 -12z
M144 104 c-7 -4 -8 -14 -3 -19 4 -3 10 -4 15 -1 3 1 3 2 2 4 -1 1 -1 1 -4 0
-4 -3 -7 -2 -9 0 -3 3 -3 8 0 11 2 3 6 4 9 1 2 -1 2 -1 4 0 2 2 1 2 -2 4 -4 2
-9 2 -12 0z M172 105 c-1 0 -1 -5 -1 -12 l0 -11 8 0 c7 0 8 0 8 2 0 2 -1 2 -4
2 -2 0 -5 0 -5 0 -1 0 -2 3 -2 10 0 7 -1 10 -2 10 -1 0 -2 0 -2 -1z M199 105
c-1 0 -1 -4 -1 -9 0 -8 0 -8 3 -11 2 -2 4 -3 7 -3 3 0 5 1 7 3 3 3 3 3 3 11 0
9 -1 10 -3 9 -2 0 -2 -2 -2 -8 0 -9 -1 -11 -4 -11 -5 0 -5 2 -6 11 0 7 -1 9
-2 9 -1 0 -2 0 -2 -1z M232 105 c-1 0 -1 -5 -1 -12 l0 -11 7 0 c5 0 7 0 9 2 3
2 4 7 2 9 -2 1 -2 2 -1 3 3 6 -1 10 -10 10 -3 0 -6 0 -6 -1z m11 -4 c1 0 1 -2
1 -3 0 -1 -2 -2 -5 -2 -4 0 -4 0 -4 3 0 3 0 3 3 3 2 0 4 0 5 -1z m2 -11 c2 -2
0 -3 -5 -4 l-5 0 0 3 c0 3 0 3 4 3 3 0 5 -1 6 -2z M240 99 c0 -1 0 -1 1 -1 1
0 1 0 1 1 0 1 0 1 -1 1 -1 0 -1 0 -1 -1z M243 89 c-1 -1 0 -1 1 -1 0 0 1 0 1
1 -1 1 -1 1 -1 1 -1 0 -1 0 -1 -1z M379 105 c2 0 4 0 6 0 1 1 0 1 -3 1 -3 0
-4 0 -3 -1z M478 105 c2 0 6 0 8 0 3 0 1 1 -4 1 -5 0 -7 -1 -4 -1z M505 105
c1 0 1 0 2 0 0 1 -1 1 -2 1 -1 0 -1 0 0 -1z M548 105 c1 0 3 0 4 0 1 1 0 1 -2
1 -2 0 -3 0 -2 -1z M583 105 c-1 0 1 0 4 0 7 0 8 1 2 1 -3 0 -6 0 -6 -1z M613
105 c1 0 1 0 2 0 0 1 -1 1 -2 1 -1 0 -1 0 0 -1z M630 105 c1 0 1 0 2 0 0 1 -1
1 -2 1 -1 0 -1 0 0 -1z M683 104 c-4 -2 -6 -8 -6 -12 2 -8 11 -12 18 -9 4 3 6
6 6 11 0 10 -9 15 -18 10z m11 -4 c1 -1 2 -3 3 -5 0 -3 0 -4 -2 -6 -2 -2 -4
-3 -5 -3 -4 0 -8 4 -8 8 0 4 4 8 7 8 2 0 4 -1 5 -2z M714 94 c0 -11 0 -12 2
-12 2 0 2 1 2 8 l1 7 5 -7 c8 -11 10 -11 10 4 0 11 -1 12 -2 12 -2 0 -3 -1 -3
-8 l0 -7 -6 7 c-3 5 -6 8 -7 8 -2 0 -2 -1 -2 -12z M747 94 l0 -12 9 0 c7 0 8
0 8 2 0 2 -1 2 -5 2 -3 0 -6 0 -7 0 -1 0 -1 1 -1 3 l0 3 6 0 c5 0 6 0 6 2 0 2
-1 2 -6 2 -6 0 -6 0 -6 2 0 3 1 3 6 3 7 1 8 1 7 3 -1 2 -3 2 -9 2 l-8 0 0 -12z
M795 94 c0 -11 0 -12 2 -12 2 0 2 1 2 8 l1 8 2 -5 c2 -3 4 -5 4 -5 0 0 2 1 2
2 1 1 2 2 1 1 0 0 0 -1 1 -1 1 0 1 1 1 2 -1 0 0 2 1 3 1 2 1 2 1 -5 0 -7 0 -8
2 -8 2 0 2 1 2 12 0 11 0 12 -2 12 -1 0 -3 -2 -5 -5 -3 -5 -6 -7 -5 -3 1 0 1
1 0 1 0 -1 -2 1 -3 3 -2 2 -4 4 -5 4 -2 0 -2 -1 -2 -12z M830 105 c0 -1 0 -6
0 -12 l1 -10 8 -1 c8 0 9 0 9 2 0 2 -1 2 -6 2 -3 0 -6 0 -6 0 -1 0 -1 1 -1 3
0 3 0 3 6 3 4 0 6 1 6 2 0 1 -2 2 -6 2 -6 0 -6 0 -6 3 0 2 0 3 6 3 6 0 7 0 7
2 0 1 -1 2 -9 2 -6 0 -8 0 -9 -1z M858 104 c0 -2 0 -2 4 -2 3 0 3 -1 3 -3 0
-17 0 -16 3 -17 2 0 2 0 2 10 l0 10 4 -1 c3 0 3 0 3 2 l0 3 -9 0 c-7 0 -9 0
-10 -2z M890 105 c-1 0 -1 -5 -1 -12 0 -10 0 -11 2 -11 2 0 2 1 2 5 l0 5 6 0
5 0 0 -5 c0 -4 0 -5 2 -5 2 0 2 1 2 12 0 11 -1 12 -2 12 -2 0 -2 -1 -2 -5 l0
-5 -6 0 -5 0 0 5 c0 3 0 5 -1 5 -1 0 -2 0 -2 -1z M924 103 c-6 -6 -5 -15 1
-19 9 -5 19 0 19 10 0 7 -5 12 -12 12 -3 0 -5 -1 -8 -3z m12 -3 c6 -4 3 -14
-4 -14 -1 0 -3 1 -4 2 -2 2 -3 3 -3 6 0 3 1 4 3 6 1 1 3 2 4 2 1 0 3 -1 4 -2z
M956 94 l0 -12 5 0 c12 0 19 8 14 17 -2 4 -7 7 -14 7 l-5 0 0 -12z m13 6 c1
-1 2 -2 2 -2 0 -1 0 -1 -1 0 -1 1 -1 1 -1 0 1 -1 1 -3 1 -4 0 -2 0 -2 1 0 l1
3 0 -3 c0 -4 -3 -7 -7 -7 l-4 -1 0 5 c-1 3 -1 7 -1 8 0 3 0 3 4 3 2 -1 4 -2 5
-2z M340 103 c0 -1 0 -2 1 -1 0 0 0 2 0 2 -1 1 -1 0 -1 -1z M360 102 c0 -2 0
-3 1 -2 0 1 0 3 0 4 -1 1 -1 0 -1 -2z M440 94 c0 -6 1 -9 1 -6 0 3 0 9 0 12 0
3 -1 0 -1 -6z M551 101 c1 0 1 0 2 0 0 1 -1 1 -2 1 -1 0 -1 0 0 -1z M597 101
c0 0 2 0 2 0 1 1 0 1 -1 1 -1 0 -2 0 -1 -1z M96 99 c0 -1 0 -1 1 -1 0 0 1 0 2
1 0 1 -1 1 -1 1 -1 0 -2 0 -2 -1z M340 97 c0 -2 0 -3 1 -2 0 1 0 3 0 4 -1 1
-1 0 -1 -2z M753 99 c0 -1 1 -1 2 -1 0 0 1 0 1 1 0 1 -1 1 -1 1 -1 0 -2 0 -2
-1z M836 99 c0 -1 1 -1 2 -1 0 0 1 0 1 1 0 1 -1 1 -1 1 -1 0 -2 0 -2 -1z M871
98 c0 -1 0 -1 1 0 0 1 0 1 0 2 -1 0 -1 -1 -1 -2z M507 96 c0 -1 0 -1 1 0 0 1
0 1 0 2 -1 0 -1 -1 -1 -2z M570 94 c0 -2 0 -3 1 -2 0 1 0 3 0 3 -1 1 -1 0 -1
-1z M360 91 c0 -2 0 -3 1 -2 0 1 0 3 0 3 -1 1 -1 0 -1 -1z M507 88 c0 -3 0 -6
0 -5 1 0 1 3 1 6 l-1 5 0 -6z M523 87 c0 -2 0 -3 1 -2 0 1 0 3 0 4 -1 1 -1 0
-1 -2z M96 89 c0 -1 0 -1 1 -1 1 0 1 0 1 1 0 1 0 1 -1 1 -1 0 -1 0 -1 -1z
M836 89 c0 -1 1 -1 2 -1 0 0 1 0 1 1 -1 1 -2 1 -2 1 -1 0 -1 0 -1 -1z M473 87
c0 -2 0 -3 1 -2 0 1 0 3 0 3 -1 1 -1 0 -1 -1z M263 85 c0 -3 3 -4 4 -1 1 2 0
3 -2 3 -1 0 -2 -1 -2 -2z M360 85 c0 -1 0 -2 1 -1 0 0 0 2 0 2 -1 1 -1 0 -1
-1z M479 86 c1 0 1 0 2 0 0 1 -1 1 -2 1 -1 0 -1 0 0 -1z M640 86 c0 -2 1 -4 3
-4 1 0 2 1 2 3 0 1 -1 2 -2 2 -1 0 -2 -1 -3 -1z M985 85 c0 -2 1 -3 3 -3 2 0
2 0 2 2 0 3 0 3 -3 3 -2 0 -2 0 -2 -2z M439 11 c0 -1 0 -1 1 0 0 1 0 1 0 2 -1
0 -1 -1 -1 -2z M560 11 c0 -1 0 -1 1 0 0 1 0 1 0 2 -1 0 -1 -1 -1 -2z"/>
    <path fill="#a87848" stroke="none" d="M312 105 c-6 -3 -9 -9 -6 -16 3 -9 16 -9 20 -1 3 7 1 14 -4 16 -4 2
-6 2 -10 1z m7 -4 c8 -3 5 -15 -3 -15 -4 0 -7 3 -7 8 0 7 4 10 10 7z M341 103
c0 -1 0 -6 0 -11 0 -9 0 -9 2 -9 1 0 2 0 2 7 l1 7 5 -7 c3 -5 7 -8 8 -8 1 0 1
0 1 11 0 11 0 12 -2 12 -2 0 -2 -1 -2 -7 l0 -7 -6 7 c-5 7 -9 9 -9 5z M374 94
l1 -11 8 -1 c7 0 8 0 8 2 0 2 -1 2 -6 2 l-7 0 0 3 c0 3 0 3 6 3 4 0 6 1 6 2 0
1 -2 2 -6 2 -6 0 -6 0 -6 3 l0 3 7 0 c5 0 6 0 6 2 0 1 -2 1 -9 1 l-8 0 0 -11z
M422 94 c0 -6 0 -11 1 -11 0 -1 2 -1 2 0 2 0 2 2 2 11 l0 11 -2 0 -3 0 0 -11z
M441 94 l0 -12 5 0 c8 0 15 5 15 12 0 7 -4 11 -14 11 l-6 0 0 -11z m12 7 c7
-4 4 -15 -4 -15 l-4 0 0 8 c0 8 0 8 3 8 1 0 3 -1 5 -1z M474 94 l1 -11 7 0 c7
0 9 0 9 1 0 2 -1 2 -6 2 l-7 0 0 3 c0 3 0 3 5 3 4 0 6 0 6 1 1 3 0 3 -6 3 -5
0 -5 0 -5 3 l0 3 7 0 c5 0 6 0 6 2 0 1 -2 1 -9 1 l-8 0 0 -11z M503 94 c0 -6
1 -11 1 -12 2 -1 3 2 3 9 0 4 0 7 1 7 0 0 3 -4 6 -8 3 -4 7 -8 8 -8 1 0 1 2 1
12 0 10 0 11 -2 11 -2 0 -2 -1 -2 -7 l0 -7 -6 7 c-4 5 -6 7 -8 7 -2 0 -2 0 -2
-11z M535 104 c0 -2 1 -2 4 -2 l3 0 0 -9 c0 -9 0 -10 2 -10 2 -1 3 0 3 8 0 12
0 11 4 11 2 0 3 0 3 2 0 1 -2 1 -9 1 -8 0 -10 0 -10 -1z M566 94 c0 -9 1 -11
2 -11 1 0 2 2 2 11 0 11 0 11 -2 11 -2 0 -2 0 -2 -11z M582 104 c0 -1 1 -2 5
-2 2 0 3 -1 3 -10 0 -8 1 -9 2 -9 1 0 2 1 2 9 l0 10 4 0 c2 0 3 0 3 2 0 1 -2
1 -9 1 -5 0 -9 0 -10 -1z M613 102 c1 -1 3 -4 4 -6 2 -2 3 -5 3 -8 0 -5 1 -5
3 -5 1 0 2 0 2 5 0 4 1 7 4 10 4 7 4 7 2 7 -2 0 -4 -1 -6 -5 l-3 -4 -3 4 c-2
4 -4 5 -6 5 -2 0 -2 0 0 -3z M440 12 l0 -3 60 0 60 0 0 3 0 2 -60 0 -60 0 0
-2z"/>
  </g>
</svg>
