<svg xmlns="http://www.w3.org/2000/svg" viewBox="0 0 995.000000 115.000000" width="995" height="115">
  <g transform="translate(0.000000,115.000000) scale(1.000000,-1.000000)"
fill="#000000" stroke="none">
    <path fill="#001848" stroke="none" d="M58 102 c-18 -3 -32 -12 -39 -27 -3 -6 -3 -7 -3 -18 0 -11 0 -12 3
-18 5 -12 18 -22 32 -25 18 -5 54 -2 69 6 l3 1 0 19 0 20 -26 0 -26 0 0 -5 0
-6 21 0 20 0 0 -11 0 -11 -6 -1 c-13 -4 -34 -5 -47 -3 -7 1 -19 6 -19 8 1 1 0
1 0 0 -2 0 -10 9 -10 11 1 0 1 1 0 1 -1 -1 -4 8 -4 14 0 6 3 15 4 14 1 0 1 1
0 1 -1 3 9 12 15 15 4 2 10 3 13 4 10 2 34 1 46 -2 5 -1 10 -2 11 -2 1 0 4 8
3 9 -1 1 -11 3 -20 5 -12 1 -32 2 -40 1z M222 57 l1 -43 5 -1 5 0 0 38 0 39
33 0 c32 0 34 -1 37 -3 5 -2 7 -7 7 -14 -1 -6 -3 -9 -8 -12 -3 -2 -6 -3 -26
-3 l-23 0 10 -9 c6 -5 18 -15 28 -22 l17 -14 7 0 c5 0 7 0 7 1 0 1 -5 6 -12
11 -6 4 -16 12 -21 16 l-10 8 12 0 c11 0 13 1 17 3 11 6 16 22 10 34 -2 4 -7
9 -11 11 -4 2 -6 3 -45 3 l-40 0 0 -43z M416 57 l0 -44 5 0 5 0 0 44 0 43 -5
0 -5 0 0 -43z M531 99 c-1 -1 -1 -79 0 -83 0 -3 0 -3 5 -3 l5 0 0 6 c0 4 0 20
0 36 l0 29 6 -6 c16 -16 24 -23 23 -24 0 -1 0 -1 1 -1 1 1 10 -7 23 -19 l22
-21 4 0 5 0 0 44 0 43 -5 0 -6 0 0 -35 0 -35 -16 14 c-9 8 -15 15 -15 16 0 1
-3 4 -4 3 -1 0 -10 8 -20 18 -19 18 -20 19 -24 19 -2 0 -4 0 -4 -1z m50 -38
c1 -1 1 -1 0 0 -2 1 -2 2 -2 2 1 0 1 -1 2 -2z M711 95 l0 -5 20 0 20 0 0 -38
0 -39 6 0 5 0 0 38 0 39 20 0 21 1 0 4 0 5 -46 0 -46 0 0 -5z M904 73 c-9 -15
-18 -31 -21 -34 -9 -16 -14 -25 -13 -25 0 -1 3 -1 5 -1 l6 0 8 14 c5 8 14 25
22 37 l13 23 4 -6 c11 -18 25 -42 24 -43 0 -1 0 -1 1 -1 0 1 4 -4 8 -11 l7
-13 6 0 c3 0 6 0 6 0 0 1 -9 17 -22 38 -5 9 -13 22 -18 30 -4 8 -9 16 -10 17
-1 2 -2 2 -5 2 l-5 0 -16 -27z M749 88 c-1 0 -1 -1 0 -1 1 -1 1 0 1 0 0 2 -1
2 -1 1z M763 87 c0 0 0 -1 1 0 1 0 1 1 1 1 0 1 0 1 -1 1 -1 0 -1 -1 -1 -2z
M749 44 c0 -1 0 -1 1 0 0 1 0 1 0 2 -1 0 -1 -1 -1 -2z M35 36 c1 -2 3 -3 3 -3
0 0 -1 1 -2 3 -1 1 -3 2 -3 2 0 0 1 -1 2 -2z M611 34 c1 -1 1 -2 2 -2 0 0 0 1
0 2 0 1 -1 2 -2 2 -2 0 -2 -1 0 -2z M749 18 c0 -1 0 -1 1 0 0 1 0 1 0 2 -1 0
-1 -1 -1 -2z"/>
    <path fill="#a87848" stroke="none" d="M923 47 c-7 -10 -20 -33 -20 -34 1 0 6 2 11 5 l11 6 3 -2 c14 -8 17
-9 18 -9 0 1 -20 36 -21 36 -1 0 -2 -1 -2 -2z"/>
  </g>
</svg>
