<?xml version="1.0" encoding="UTF-8" standalone="no"?>
<!-- Created with Inkscape (http://www.inkscape.org/) -->

<svg
   version="1.1"
   id="svg1"
   width="3960"
   height="376"
   viewBox="0 0 3960 376"
   sodipodi:docname="Grinta_Fini.svg"
   inkscape:version="1.4.4 (dcaf3e7, 2026-05-05)"
   xmlns:inkscape="http://www.inkscape.org/namespaces/inkscape"
   xmlns:sodipodi="http://sodipodi.sourceforge.net/DTD/sodipodi-0.dtd"
   xmlns="http://www.w3.org/2000/svg"
   xmlns:svg="http://www.w3.org/2000/svg">
  <defs
     id="defs1" />
  <sodipodi:namedview
     id="namedview1"
     pagecolor="#ffffff"
     bordercolor="#000000"
     borderopacity="0.25"
     inkscape:showpageshadow="2"
     inkscape:pageopacity="0.0"
     inkscape:pagecheckerboard="0"
     inkscape:deskcolor="#d1d1d1"
     showgrid="false"
     inkscape:zoom="0.25"
     inkscape:cx="1686"
     inkscape:cy="750"
     inkscape:window-width="1920"
     inkscape:window-height="1009"
     inkscape:window-x="-8"
     inkscape:window-y="-8"
     inkscape:window-maximized="1"
     inkscape:current-layer="g1" />
  <g
     inkscape:groupmode="layer"
     inkscape:label="Image"
     id="g1">
    <g
       id="g7"
       transform="translate(-37.5,3.5)">
      <path
         style="fill:#b2894b"
         d="M 3726.8094,222.56973 3809,367 l -82.1977,-47.20023 -85.1559,47.06765 z"
         id="path8"
         sodipodi:nodetypes="ccccc" />
      <path
         style="fill:#052658"
         d="m 295.5,371.3076 -6,-0.31424 -15.46706,-1.54906 -15.46706,-1.54907 -13.18202,-2.43463 -13.18202,-2.43463 -11.64836,-3.53078 -11.64835,-3.53077 -12.20257,-5.29465 -12.20256,-5.29464 -9.39486,-5.74049 -9.39486,-5.74048 -7.60514,-5.63886 L 150.5,322.61644 138.35828,310.55822 126.21655,298.5 l -7.09558,-10.92779 -7.09558,-10.92778 -4.39383,-9.07222 -4.39384,-9.07221 -2.69123,-7.5 -2.691236,-7.5 -2.917404,-11.93305 -2.917404,-11.93304 -1.015397,-12.5714 -1.015397,-12.57139 0.990368,-14.69467 0.990368,-14.69466 2.053329,-9.47728 2.053329,-9.47727 2.841391,-8.32362 2.841393,-8.32362 3.99043,-9 3.99043,-9 5.02344,-8.5 5.02344,-8.5 4.77179,-6.5 4.7718,-6.5 5.76185,-6.5 5.76186,-6.5 9.33312,-7.77083 9.33312,-7.77083 8.98944,-6.064272 8.98945,-6.064272 12,-5.815497 12,-5.815498 12,-4.033838 12,-4.033839 11.58311,-2.557198 11.58311,-2.557198 12.91689,-1.491023 12.91689,-1.491023 20.02688,-1.024332 20.02688,-1.024333 19.02656,0.9921 19.02655,0.992099 17.44656,1.528092 17.44657,1.528092 16,2.037439 16,2.037439 15.5,3.032298 15.5,3.032298 10.5,2.461232 10.5,2.461233 13,3.545387 13,3.545387 1.98415,0.707154 L 487.2955,70.05439 479,67.929638 l -7.5,-1.903781 -19,-3.942215 -19,-3.942215 L 417,55.59025 400.5,53.039073 381,51.036546 361.5,49.03402 336.34532,47.863279 311.19065,46.692538 295.34532,47.859822 279.5,49.027105 267,50.963222 l -12.5,1.936117 -8.5,2.034712 -8.5,2.034713 -8,2.580506 -8,2.580505 -12.44038,5.970359 -12.44038,5.97036 -8.50943,5.714753 L 179.60038,85.5 168.98441,96 l -10.61597,10.5 -5.27636,7.5 -5.27635,7.5 -3.89002,7.69231 -3.89002,7.69232 -2.0567,5.30768 -2.0567,5.30769 -3.05173,12 -3.05173,12 -0.50237,15 -0.50238,15 1.54074,10 1.54074,10 2.61892,9 2.61892,9 3.33063,7.68915 3.33063,7.68916 5.47153,8.31084 5.47154,8.31085 5.68847,6.5 5.68846,6.5 7.69267,6.80445 7.69267,6.80445 6.62394,4.43855 6.62395,4.43854 8.37605,4.45233 8.37606,4.45233 9.16229,3.53536 9.1623,3.53536 11.07106,3.01026 11.07107,3.01025 14.31086,2.46309 14.31087,2.4631 15.95577,1.17544 15.95578,1.17543 25.5,-0.59882 25.5,-0.59882 13,-1.07646 13,-1.07645 14,-1.99993 14,-1.99992 10,-1.99013 10,-1.99012 9,-2.51522 9,-2.51522 9.5,-3.03803 9.5,-3.03804 1.75,-1.56588 1.75,-1.56588 c 0.41687,-30.1969 -0.59931,-60.42206 0.05,-90.61502 -19.27568,-0.59007 -74.30135,0.8881 -163.55,-1.575 v -34 c 66.53883,-1.42903 133.20198,1.40422 199.72578,-0.5601 0.17683,50.51909 0.1971,101.0403 0.27422,151.5601 l -5.5,2.65777 -5.5,2.65777 -16,5.69441 -16,5.6944 -19,4.82367 -19,4.82366 -16.5,2.53686 -16.5,2.53686 -14.5,1.52529 -14.5,1.52529 -14.5,1.00212 -14.5,1.00212 -20.5,-0.17919 -20.5,-0.1792 z m 625.53479,-7.2709 c 0.34884,-114.29314 -0.59976,-228.59331 -0.0251,-342.885732 97.16341,0.121592 194.32691,0.250592 291.49031,0.376974 l 9.1716,1.727576 9.1716,1.727575 8.3284,2.613265 8.3284,2.613265 9.5,4.878287 9.5,4.878288 7.4301,6.266901 7.4301,6.266901 5.3787,7 5.3787,7 4.3957,9 4.3957,9 1.9883,7.5 1.9883,7.5 1.1983,9.89026 1.1984,9.89026 -0.6444,9.60974 -0.6444,9.60974 -2.4482,10.76664 -2.4481,10.76665 -2.718,6.23335 -2.718,6.23336 -5.3247,8.14572 -5.3247,8.14571 -7.377,6.85429 -7.377,6.85428 -5.5641,3.3328 -5.5641,3.3328 -7.2426,2.94738 -7.2425,2.94737 -9.0723,2.00041 -9.0722,2.0004 -15,0.94333 -15,0.94332 c -20.4149,-0.23268 -40.8445,0.42168 -61.2565,-0.0311 77.5828,62.17058 118.9585,91.0429 180.194,142.64584 -19.3077,-0.3176 -38.6186,-0.50526 -57.9277,-0.74149 -70.3523,-58.14327 -143.9981,-112.19464 -213.2285,-171.70227 55.0726,-0.25277 110.1458,-0.45684 165.2187,-0.67799 l 9.5,-2.61022 9.5,-2.61022 5.8707,-2.6085 5.8707,-2.6085 6.1889,-4.41633 6.1889,-4.41632 3.5244,-4.33533 3.5243,-4.33533 2.6614,-4.57991 2.6614,-4.5799 2.052,-5.9201 2.052,-5.92009 0.974,-10.94262 0.9739,-10.94262 -1.0916,-7.97239 -1.0915,-7.97238 -2.6013,-6.584997 -2.6013,-6.584993 -3.1635,-5 -3.1634,-5 -5.9874,-5.532811 -5.9874,-5.532811 -7.1889,-3.777657 -7.1889,-3.777657 -9.7387,-2.681093 -9.7387,-2.681093 c -84.671,-0.720232 -169.3629,0.418002 -254.03121,-0.555143 0.13815,6.809127 0.61007,110.937565 -0.76988,307.958105 -11.82108,0.0272 -23.84301,0.19515 -35.66408,0.11686 z M 1694.3232,21.234835 c 11.662,-0.171534 24.0299,0.147252 35.6922,-0.0058 1.3865,202.370515 -2.6019,215.855695 0.1337,342.505845 -11.6638,0.0343 -24.653,0.23417 -36.3166,0.17677 0.1166,-114.13692 0.3184,-228.53967 0.4907,-342.676765 z m 458.2923,342.373245 c -0.2819,-114.29191 -0.2267,-228.33411 -0.5337,-342.626091 l 30.5593,0.15974 c 101.0386,96.674721 201.5443,193.930041 304.839,288.210791 -0.5508,-95.85138 0.356,-192.49934 -0.3866,-288.350056 12.1945,-0.07942 25.0076,-0.01881 37.202,-0.121182 l 0.1768,342.795498 -33.7107,0.37391 C 2389.4948,269.987 2287.1073,177.07625 2188.9533,79.730562 c -0.034,94.588818 0.2182,189.117518 0.047,283.706938 -11.8365,0.0456 -24.5478,0.20962 -36.3845,0.17058 z M 3035,363.84958 V 57.496517 c -53.1667,-0.294833 -106.3334,-0.657859 -159.5,-0.9965 l -1.0387,-34.975569 360.2436,-0.305856 0.2306,36.316656 c -54.1038,1.047278 -108.3906,1.005826 -162.5099,0.451692 0.273,101.80576 -0.7559,203.68341 -0.9256,305.51306 -12.1664,0.0237 -24.3335,0.42866 -36.5,0.34958 z m 472.4408,0.3229 202.8896,-343.29751 31.0471,0.0625 203.6101,342.7804 -43.1318,0.22404 -175.0177,-294.975086 -2.5479,0.03315 -175.1936,295.437496 z"
         id="path7"
         sodipodi:nodetypes="cccccccccccccccccccccccccccccccccccccccccccccccccccccccccccccccccccccccccccccccccccccccccccccccccccccccccccccccccccccccccccccccccccccccccccccccccccccccccccccccccccccccccccccccccccccccccccccccccccccccccccccccccccccccccccccccccccccccccccccccccccccccccccccccccccccccccc" />
    </g>
  </g>
</svg>
