<?xml version="1.0" encoding="UTF-8" standalone="no"?>
<!-- Created with Inkscape (http://www.inkscape.org/) -->

<svg
   version="1.1"
   id="svg1"
   width="3920"
   height="428"
   viewBox="0 0 3920 428"
   sodipodi:docname="one Club_Fini.svg"
   inkscape:version="1.4.4 (dcaf3e7, 2026-05-05)"
   xmlns:inkscape="http://www.inkscape.org/namespaces/inkscape"
   xmlns:sodipodi="http://sodipodi.sourceforge.net/DTD/sodipodi-0.dtd"
   xmlns="http://www.w3.org/2000/svg"
   xmlns:svg="http://www.w3.org/2000/svg">
  <defs
     id="defs1" />
  <sodipodi:namedview
     id="namedview1"
     pagecolor="#ffffff"
     bordercolor="#000000"
     borderopacity="0.25"
     inkscape:showpageshadow="2"
     inkscape:pageopacity="0.0"
     inkscape:pagecheckerboard="0"
     inkscape:deskcolor="#d1d1d1"
     showgrid="false"
     inkscape:zoom="1.2255102"
     inkscape:cx="2506.3031"
     inkscape:cy="165.2373"
     inkscape:window-width="1920"
     inkscape:window-height="1009"
     inkscape:window-x="-8"
     inkscape:window-y="-8"
     inkscape:window-maximized="1"
     inkscape:current-layer="g1" />
  <g
     inkscape:groupmode="layer"
     inkscape:label="Image"
     id="g1">
    <g
       id="g2"
       transform="translate(-91.594505,57.323064)">
      <path
         style="fill:#b88d47"
         d="m 1693.4154,402.6401 -0.5234,-1.36404 0.304,-5.54222 0.304,-5.54222 238.5,-0.34581 238.5,-0.34581 v 7 7 l -238.2806,0.25207 -238.2806,0.25206 z M 1181.5,111.59785 l -4,-1.26835 -4.3887,-2.25584 -4.3887,-2.25583 -4.9182,-4.91816 -4.9181,-4.918166 -2.9955,-6.401073 -2.9954,-6.401072 -1.0253,-6.585852 -1.0253,-6.585851 1.091,-7.253828 1.091,-7.253828 3.5068,-7.180393 3.5068,-7.180393 5.2298,-5.131755 5.2298,-5.131755 7.4477,-3.687852 7.4477,-3.687852 h 11.6021 11.6021 l 7.5949,3.752564 7.5948,3.752564 5.512,5.953594 5.512,5.953594 2.5299,5.347924 2.53,5.347923 1.1763,6.754475 1.1762,6.754475 -1.0847,7.292783 -1.0846,7.292783 -2.0623,4.811164 -2.0623,4.811163 -3.5603,4.850045 -3.5603,4.850049 -5.5932,4.00521 -5.5932,4.00522 -6.4177,1.98223 -6.4178,1.98224 -9.6446,-0.0669 -9.6447,-0.0669 z m 29.3707,-12.124007 5.2364,-2.849995 3.5613,-3.941913 3.5613,-3.941913 2.565,-5.602774 2.565,-5.602773 0.065,-8.017237 0.065,-8.017238 -1.832,-5.270479 -1.8319,-5.270479 -3.856,-4.878143 -3.8559,-4.878142 -5.6987,-2.788085 -5.6986,-2.788084 -8.2562,-0.433337 -8.2561,-0.433338 -5.5075,2.521403 -5.5075,2.521403 -4.0652,4.188979 -4.0653,4.188979 -2.6828,5.483437 -2.6828,5.483436 -0.067,8.676225 -0.067,8.676225 1.8815,5.5 1.8815,5.5 6.0888,6.066458 6.0887,6.066458 5.5,1.662464 5.5,1.66247 7.0672,-0.31701 7.0671,-0.317 z m 148.7029,11.405417 -2.6961,-2.12074 L 1343.7591,91.12926 1330.6407,73.5 1320.6131,60.75 1310.5854,48 h -0.7786 -0.7787 l -0.2641,31.75 -0.264,31.75 -5.9072,0.3046 -5.9073,0.30459 -0.713,-1.15363 -0.7129,-1.15363 0.4249,-40.650965 0.425,-40.650965 0.4643,-2.25 0.4643,-2.25 h 4.981 4.9809 l 2.0027,2.002662 2.0026,2.002663 13.272,17.747337 13.2721,17.747338 6.8945,9 6.8945,9 2.5179,2.75 2.5179,2.75 h 0.6612 0.6613 l 0.5541,-30.569075 0.554,-30.569074 0.539,-0.538958 0.5389,-0.538957 5.3087,-0.141968 L 1370.5,24.5 l 0.2608,42.884476 0.2609,42.884474 -1.1333,1.36553 -1.1333,1.36552 h -3.2427 -3.2427 z M 1430.2396,68.75 1430.5,24.5 l 30.8799,-0.26464 30.8799,-0.264639 1.3701,1.137084 1.3701,1.137084 v 2.443297 2.443297 l -1.0352,1.934258 L 1492.9296,35 h -23.383 -23.383 l -1.5818,0.606989 L 1443,36.213978 V 48.638374 61.06277 l 1.4645,0.561993 1.4646,0.561994 21.2854,0.656621 L 1488.5,63.5 l 0.3145,3.819788 0.3146,3.819788 -1.187,1.430212 L 1486.7551,74 h -21.7581 -21.7581 l -0.7117,10.441713 -0.7117,10.441712 0.668,3.041559 0.6681,3.041556 25.6742,0.26673 L 1494.5,101.5 v 5 5 l -5.5,0.6511 -5.5,0.65111 -26.7604,0.0989 -26.7604,0.0989 z m 195.4999,43.44065 -1.7604,-0.34133 0.2604,-43.674658 L 1624.5,24.5 l 3.9047,-0.319587 3.9047,-0.319586 2.3559,0.5913 2.3559,0.591301 -0.2606,43.228286 L 1636.5,111.5 l -4.5,0.51599 -4.5,0.51599 z m 72.5105,0.2235 -1.25,-0.58082 V 68.523655 25.213978 l 1.5818,-0.606989 1.5818,-0.606989 17.1682,0.01478 17.1682,0.01478 6.2692,1.478081 6.2691,1.47808 5.1115,2.590211 5.1116,2.59021 4.6242,4.666928 4.6241,4.666928 3.1732,6.005017 3.1732,6.005018 1.2019,6.90179 1.2019,6.90179 -0.6156,6.592998 -0.6157,6.592999 -2.962,6.016749 -2.9621,6.01675 -4.5631,4.762384 -4.5632,4.762387 -4.7391,3.00693 -4.7391,3.00694 -6.5,2.03063 -6.5,2.03063 -18.5,0.43098 -18.5,0.43097 z m 43.9445,-13.882221 4.6946,-1.682132 4.6028,-4.051549 4.6028,-4.05155 2.519,-4.971093 2.5191,-4.971094 0.5566,-6.652256 0.5566,-6.652255 -1.6519,-6.443461 -1.6518,-6.44346 -2.6959,-3.55654 -2.6959,-3.556539 -2.0253,-1.810807 -2.0252,-1.810806 -5.031,-2.412251 -5.0311,-2.41225 -6.9689,-1.007134 -6.969,-1.007135 -6.55,-0.01981 L 1712.4,35 l -1.2,1.2 -1.2,1.2 v 31.133333 31.133334 l 0.75,0.775743 0.75,0.77575 13,-0.50205 13,-0.50205 z m 87.3142,13.351211 -0.5307,-1.38314 0.261,-43 0.261,-43 h 32.5 32.5 l 0.3141,4.385864 0.3142,4.385863 -1.1122,1.114137 -1.1121,1.114136 -25.202,0.5 -25.202,0.5 0.1181,12.284734 0.118,12.284733 0.6485,0.648438 0.6484,0.648438 21.7335,0.06683 21.7335,0.06683 0.3023,5.25 0.3022,5.25 -0.3022,0.200707 -0.3023,0.200708 -22,0.549292 -22,0.549293 v 13 V 100.5 l 25,0.5 25,0.5 0.3141,4.38586 0.3142,4.38587 -0.8142,0.77578 -0.8141,0.77578 -31.2303,0.72149 -31.2303,0.7215 z m 182.0141,-1.04384 -2.7469,-2.1607 L 1991.2465,85.089301 1973.717,61.5 l -5.6085,-6.731129 -5.6085,-6.731129 -1.3967,-0.01887 -1.3968,-0.01887 0.6609,7.75 0.6609,7.75 -0.672,24.25 L 1959.6842,112 H 1953.8421 1948 V 67.950096 23.900192 l 5.711,0.299904 5.711,0.299904 8.8444,11.5 8.8445,11.5 13.9673,18.115596 13.9673,18.115597 1.9834,1.794939 1.9834,1.79494 0.4003,-0.410536 0.4003,-0.410536 0.3266,-29.818006 0.3265,-29.818006 0.5403,-0.874182 0.5403,-0.874181 4.5358,-0.234794 4.5359,-0.234793 1.1908,0.735998 1.1909,0.735998 v 42.833994 42.833992 l -1.5818,0.60699 -1.5818,0.60699 h -2.7833 -2.7834 z m 186.4391,0.61474 -1.2831,-1.54597 0.6238,-42.122249 0.6237,-42.122251 1.2869,-0.816472 1.2868,-0.816472 3.55,-0.01531 3.55,-0.01531 1.2,1.2 1.2,1.2 V 68.724751 111.0495 l -2.5651,0.97525 -2.5651,0.97525 h -2.8125 -2.8124 z m 217.7881,0.50704 -1.75,-1.06046 V 93.850571 76.800522 L 2404.779,63.150261 2395.558,49.5 2387.779,37.818156 2380,26.136312 V 25.068156 24 h 6.345 6.345 l 1.5057,1.75 1.5056,1.75 11.1547,16.5 11.1547,16.5 1.5044,1.954505 1.5045,1.954505 1.4352,-1.454505 1.4353,-1.454505 10.6549,-16.5 10.6549,-16.5 2.0743,-2.25 2.0744,-2.25 h 6.3257 6.3257 v 1.271413 1.271414 l -4.75,6.51719 -4.75,6.517191 -12,17.853588 -12,17.853588 -0.3118,18.357808 L 2427.8763,112 h -2.3131 -2.3132 l -2.875,0.51077 -2.875,0.51076 z m 83.5,0.008 -2.25,-0.90439 v -5.40978 -5.40978 l 1.6537,-1.372445 1.6537,-1.372445 h 4.3828 4.3827 l 0.9483,1.5 0.9482,1.5 0.015,4.67857 0.015,4.67857 -1.5714,1.57143 -1.5715,1.57143 -3.1785,-0.0634 -3.1786,-0.0634 z m -395.9215,-1.55513 -0.6087,-1.58629 0.4948,-35.993703 0.4948,-35.993703 -2.4198,-0.920007 L 2098.8698,35 H 2086.9349 2075 v -4.893011 -4.893011 l 1.5818,-0.606989 L 2078.1636,24 h 32.2182 32.2182 l 1.0924,1.092444 1.0925,1.092444 -0.53,4.157556 -0.5301,4.157556 -0.3201,0.374346 -0.3201,0.374346 -12.7716,0.438345 -12.7717,0.438346 -0.2819,0.281894 -0.2819,0.281893 -0.5872,36.905415 -0.5872,36.905415 -0.4606,0.75 -0.4605,0.75 h -5.4724 -5.4724 z M 2293,74.019052 V 36.038104 l -2.25,-0.523721 -2.25,-0.52372 -12,-0.245332 -12,-0.245331 -0.3149,-4.400891 -0.3148,-4.40089 1.3148,-0.833797 1.3149,-0.833796 33.1276,-0.01531 33.1275,-0.01531 1.1345,1.366944 1.1344,1.366944 -0.8024,3.883056 -0.8025,3.883056 -6.4596,0.633116 -6.4595,0.633115 -7.25,0.116885 L 2306,36 l -0.072,2.75 -0.072,2.75 0.1372,33.5 0.1373,33.5 -0.672,1.75 -0.6721,1.75 h -5.893 -5.893 z"
         id="path3"
         sodipodi:nodetypes="ccccccccccccccccccccccccccccccccccccccccccccccccccccccccccccccccccccccccccccccccccccccccccccccccccccccccccccccccccccccccccccccccccccccccccccccccccccccccccccccccccccccccccccccccccccccccccccccccccccccccccccccccccccccccccccccccccccccccccccccccccccccccccccccccccccccccccccccccccccccccccccccccccccccccccccccccccccccccccccccccccccccccccccccccccccccccccccccccccccccccccccccccccccccccccccccccccccccccccccccccccccccccccccccccccccccccccccccccccccccccccccccccc" />
      <path
         style="fill:#0d2c69"
         d="m 522,112.8807 -5.5,-0.88549 -7.18468,-3.51995 -7.18468,-3.51995 -4.20496,-4.72765 L 493.72071,95.5 490.76632,89.250475 487.81193,83.00095 486.72836,76.000475 485.64479,69 l 1.08357,-7.000475 1.08357,-7.000475 3.04549,-6.508052 3.04548,-6.508053 5.20909,-5.507844 5.20909,-5.507845 6.21156,-3.057938 6.21155,-3.057937 7.13333,-1.104136 7.13332,-1.104136 7.74458,1.194695 7.74458,1.194696 5,2.447937 5,2.447936 3.75,3.108618 3.75,3.108617 v 1.838302 1.838303 L 560.92327,42.411106 557.84655,45 h -0.98191 -0.98192 l -3.69136,-2.954403 -3.69136,-2.954402 -4.65687,-2.051196 -4.65687,-2.051195 -5.91223,-0.61795 -5.91222,-0.617951 -5.56699,1.618367 -5.56699,1.618367 -5.08334,4.570362 -5.08334,4.570362 -3.04487,6.185014 -3.04488,6.185013 -0.60712,6.501545 -0.60712,6.501544 1.61695,6.311595 1.61696,6.311594 2.99091,4.347142 2.99091,4.347142 4.01762,3.438929 4.01761,3.43893 5.11078,1.650591 5.11077,1.6506 h 3.79607 3.79607 l 6.04252,-1.88064 6.04253,-1.880649 5.024,-3.687956 5.024,-3.687956 2.67367,0.318601 2.67368,0.3186 2.04748,2.754467 2.04748,2.754467 -3.80051,3.892086 -3.80052,3.89208 -4.86768,2.64932 -4.86767,2.64932 -6.7804,1.43677 -6.78039,1.43676 -3.5,-0.0995 -3.5,-0.0995 z m -472.749326,-1.365 -5.249326,-1.47436 -4.175306,-2.13009 -4.175305,-2.13008 L 30.51074,100.64059 25.370742,95.5 22.045779,88.745297 18.720815,81.990595 18.237415,72.745297 17.754014,63.5 l 1.187554,-5.719476 1.187554,-5.719475 2.953594,-5.910664 2.953593,-5.910664 4.855348,-4.54161 4.855348,-4.541609 6.191125,-3.12527 6.191125,-3.12527 7.933801,-1.156363 7.9338,-1.156363 6.444323,1.103865 6.444322,1.103866 5.737384,2.626661 5.737384,2.626661 4.204103,3.444946 4.204103,3.444947 3.539095,5.331874 3.5391,5.331874 2.18378,6.446035 2.18378,6.446035 -0.42838,10.5 -0.42839,10.5 -3.33209,6.964299 -3.33208,6.964298 -4.868111,4.741683 -4.868106,4.74168 -7.529654,3.72136 -7.529654,3.72136 -10.698882,0.31769 L 54.5,112.99006 Z m 25.065389,-11.10773 4.672341,-1.592023 4.793342,-4.309627 4.793342,-4.309626 2.962456,-5.348347 L 94.5,79.5 v -11 -11 L 91.750092,52.283425 89.000184,47.066851 85.336574,43.403241 81.672964,39.73963 76.086482,37.147983 70.5,34.556335 l -8,-0.02355 -8,-0.02355 -5.660544,2.775167 -5.660544,2.775166 -3.546144,3.925158 -3.546144,3.925157 -1.92757,3.795061 -1.927571,3.79506 -1.181051,5.723082 -1.181051,5.723081 0.695793,4.776919 0.695793,4.776918 1.902864,5.147094 1.902863,5.147094 4.176283,4.744509 4.176284,4.744508 6.040369,2.857609 6.04037,2.857602 7.071861,7.9e-4 7.071861,7.9e-4 z m 152.263427,9.89879 -2.69325,-2.69324 -5.68028,-7.55676 L 212.52568,92.5 199.8249,76.247419 187.12412,59.994838 182.91717,53.997419 178.71022,48 h -1.34106 -1.34107 L 175.76405,79.75 175.5,111.5 h -6 -6 l -0.24687,-22.5 -0.24688,-22.5 0.74688,-21 0.74687,-21 4.74708,-0.304672 4.74708,-0.304672 2.63479,2.804672 2.63479,2.804672 10.56639,14 10.56639,14 8.93818,11.5 8.93819,11.5 3.02201,3.211088 3.022,3.211089 0.84155,-0.520106 L 226,85.881966 226.01531,56.190983 226.03063,26.5 l 0.83143,-1.31105 0.83144,-1.31105 4.90325,0.31105 L 237.5,24.5 l 0.0827,43 0.0827,43 -0.95512,1.25 -0.95511,1.25 h -3.24119 -3.24119 z M 750.5,111.6418 l -4,-1.30566 -3.14388,-1.63887 -3.14388,-1.63888 -3.15099,-3.15099 -3.151,-3.15099 -2.36566,-4.668414 -2.36566,-4.668412 -1.08947,-5.893452 L 727,79.632681 V 53.016341 26.4 l 1.2,-1.2 1.2,-1.2 h 3.67756 3.67755 l 1.05001,1.265183 1.05001,1.265182 0.32243,27.984818 L 739.5,82.5 l 2.30361,5 2.30362,5 2.69638,2.841583 2.69639,2.841583 3.5,1.766377 3.5,1.766377 4.77439,0.62625 4.77439,0.62626 5.09211,-1.09206 5.0921,-1.09206 3.95592,-3.573944 3.95592,-3.573939 2.17759,-4.068213 L 788.5,85.5 789,56 l 0.5,-29.5 0.80902,-1.25 0.80901,-1.25 h 3.24986 3.24985 l 1.7808,1.302149 1.78079,1.302148 -0.33967,30.447852 L 800.5,87.5 l -3.09146,6.5 -3.09146,6.5 -3.90854,3.78046 -3.90854,3.78046 -4.5,2.21954 -4.5,2.21954 -11.5,0.22373 -11.5,0.22372 z m 1925.5242,-0.19124 -5.4757,-1.52512 -4.5243,-2.59306 -4.5242,-2.59306 -3.3455,-3.11966 -3.3454,-3.11966 -2.9643,-4.266922 -2.9642,-4.266922 -2.0235,-5.733078 -2.0235,-5.733078 -0.014,-9 -0.013,-9 2.1532,-6.5 2.1533,-6.5 3.5325,-5.202542 3.5325,-5.202542 4.3699,-3.580811 4.3699,-3.580811 6.3799,-2.985528 6.38,-2.985527 7.9369,-0.612053 7.9369,-0.612052 5.2966,1.135917 5.2966,1.135917 5.4252,2.566531 5.4252,2.56653 5.4689,4.998215 5.4688,4.998215 3.0115,5.263477 3.0114,5.263477 1.6486,6.416793 1.6485,6.416794 -0.5632,8.043418 -0.5633,8.043418 -2.0561,5.456582 -2.0562,5.456582 -3.781,4.976103 -3.781,4.976107 -4.9761,3.78102 -4.9761,3.78102 -5.5,2.15462 -5.5,2.15463 -10,0.32609 -10,0.32609 z m 27.6363,-12.052951 5.1606,-2.457173 3.5544,-3.934314 3.5544,-3.934314 2.7851,-5.285904 2.785,-5.285904 -0.027,-10 -0.027,-10 -2.1336,-4.67567 -2.1335,-4.67567 -4.1976,-4.553862 -4.1976,-4.553862 -5.6368,-2.757835 -5.6368,-2.757836 -8.0047,-0.0043 -8.0047,-0.0043 -5,2.289486 -5,2.289486 -4.1729,4.084727 -4.173,4.084726 -2.7716,6.117431 -2.7716,6.11743 0.031,8.552026 0.031,8.552026 2.7162,5.947974 2.7162,5.947974 3.6978,3.812974 3.6977,3.812974 3.4874,2.165324 3.4875,2.165327 5.5125,1.21712 5.5126,1.21712 5,-0.51803 5,-0.51803 z M 2851.9507,110.3051 2848.748,107.61019 2832.5507,86.055096 2816.3534,64.5 l -6.3507,-8.275335 -6.3507,-8.275335 -1.076,0.358041 -1.076,0.35804 -0.5,31.417295 -0.5,31.417294 h -5.5 -5.5 V 68 24.5 h 5.9731 5.9731 l 12.0269,16.611234 12.0269,16.611235 11.3344,14.564177 11.3345,14.564178 1.3178,0.505687 1.3178,0.505687 0.5977,-0.597766 L 2852,86.666667 V 55.940322 25.213978 l 1.5818,-0.606989 L 2855.1636,24 h 2.7182 2.7182 l 1.2,1.2 1.2,1.2 v 42.1 42.1 l -1.2,1.2 -1.2,1.2 h -2.7233 -2.7232 z m 72.2888,1.98357 -2.2604,-0.43051 0.2604,-43.679082 L 2922.5,24.5 h 31 31 v 5 5 l -8.5,0.65075 -8.5,0.65075 -16.1276,0.09925 -16.1275,0.09925 -1.2335,1.486321 -1.2336,1.486321 0.3746,10.943837 0.3746,10.943836 0.8105,0.810564 0.8106,0.810564 20.3172,-0.334115 20.3172,-0.334115 2.1609,1.156521 2.161,1.156521 -0.3022,4.686872 L 2979.5,73.5 l -21.9216,0.26998 -21.9216,0.269981 -1.358,1.127029 -1.358,1.127029 0.2796,12.102991 0.2796,12.10299 25.5,0.54327 25.5,0.54328 0.25,0.20672 L 2985,102 v 5 5 h -27.9182 -27.9182 l -1.3318,0.35959 -1.3318,0.35959 z M 3188,112.02228 l -1.5,-0.94709 -0.5,-31.205342 -0.5,-31.205341 -1.2413,-0.412688 -1.2413,-0.412688 -3.2587,5.318753 -3.2587,5.318753 -9.7369,14.761681 L 3157.0262,88 l -1.2631,-0.03923 -1.2631,-0.03923 -13,-19.698875 -13,-19.698874 -1,-0.0119 -1,-0.0119 -0.5,31.5 -0.5,31.499999 h -5.5 -5.5 V 68 24.5 l 6.2494,-0.297702 6.2494,-0.297703 5.9302,9.297703 5.9301,9.297702 7.6401,11.75 7.6401,11.75 h 1.8056 1.8056 l 9.7959,-15.122502 9.7959,-15.122501 4.3268,-5.877499 L 3185.9959,24 h 5.395 5.3951 l 0.607,1.581787 0.607,1.581788 V 69.106538 111.0495 l -2.5651,0.97525 -2.5651,0.97525 -1.6849,-0.0153 -1.6849,-0.0153 z m 459.2645,-0.50212 -5.2354,-1.47172 -5.1452,-2.60729 -5.1453,-2.60729 -4.9262,-4.92618 -4.9261,-4.926176 -3.1563,-6.740752 -3.1563,-6.740752 -0.4,-9.108964 -0.3999,-9.108964 1.1181,-5.213497 1.1181,-5.213497 2.6836,-5.677539 2.6835,-5.677539 5.1507,-5.154449 5.1507,-5.15445 6.1576,-3.108348 6.1576,-3.108347 7.4977,-1.165649 7.4978,-1.165648 7.0059,1.084411 7.0059,1.084412 6.4902,3.037167 6.4903,3.037167 4.9316,4.931637 4.9317,4.931636 2.9893,5.921827 2.9893,5.921826 1.0883,5.887063 1.0883,5.887064 v 4.767119 4.76712 l -1.1087,5.299221 -1.1087,5.299221 -3.0163,5.723203 -3.0164,5.723203 -5.3664,5.075344 -5.3664,5.07535 -6.6735,3.12288 -6.6734,3.12288 -10.0851,0.32452 -10.0851,0.32451 z m 24.1033,-11.12981 4.724,-1.609644 5.0003,-4.870433 5.0003,-4.870434 2.7038,-5.769919 L 3691.5,77.5 V 68 58.5 l -2.6107,-5.566579 -2.6107,-5.566579 -3.8893,-3.824055 -3.8893,-3.824056 -5.5,-2.581198 -5.5,-2.581198 -8,-0.01037 -8,-0.01037 -5,2.434841 -5,2.43484 -4.6738,4.785816 -4.6739,4.785816 -2.0761,5.549057 -2.0762,5.549056 v 7.303557 7.303556 l 1.3764,4.573281 1.3763,4.573281 3.2223,4.486986 3.2223,4.486985 4.5039,3.234444 4.5039,3.234444 4.1474,1.297325 4.1475,1.29733 6.0719,0.0669 6.0718,0.0669 z M 297.46297,110.76408 296.9779,109.5 297.23895,67 297.5,24.5 328.75,24.235753 360,23.971507 V 29.485753 35 l -5.25,0.137826 -5.25,0.137826 L 329,35.887826 308.5,36.5 v 12.288231 12.28823 l 1.5,0.946457 1.5,0.946456 21.75,0.01531 L 355,63 v 5 5 l -8.25,0.192921 -8.25,0.192922 -13.55648,-0.315016 -13.55647,-0.315016 -1.82254,1.822537 -1.82254,1.822536 0.48698,11.824189 0.48698,11.824187 0.72756,0.72537 0.72755,0.72537 20.16448,-0.22498 20.16448,-0.22497 5.5,0.72497 5.5,0.72498 v 4.5 4.5 l -31.77598,0.26408 -31.77598,0.26408 z m 321.11668,-0.41712 -0.64579,-1.68289 0.19943,-34.582033 L 618.33271,39.5 618.91635,32 619.5,24.5 l 4,-0.260911 4,-0.260912 1.14902,0.760912 1.14903,0.760911 0.74044,37.334904 0.74045,37.334906 1.11053,0.38196 1.11053,0.38196 22,0.78314 22,0.78313 v 4.5 4.5 l -29.13728,0.26493 -29.13729,0.26492 z M 859.45756,110.75 858.9779,109.5 859.23895,67 859.5,24.5 h 22.5 22.5 l 4.96705,1.44073 4.96704,1.44073 4.20799,4.207984 4.20798,4.207984 1.06939,3.851286 1.0694,3.851286 -0.0164,3.5 -0.0164,3.5 -2.03699,4.5 -2.03699,4.5 -2.62591,2.747667 -2.6259,2.747666 5.63575,5.252334 5.63574,5.252333 1.54911,3.717881 L 930,82.935763 v 5.216394 5.216394 l -2.08791,4.313051 -2.08791,4.313048 -4.11841,3.52521 -4.11841,3.5252 -4.97518,1.47747 L 907.637,112 h -23.84989 -23.84988 z m 52.30753,-12.578838 3.26509,-2.328839 1.48491,-2.871501 L 918,90.09932 V 86.917694 83.736068 L 915.90346,80.34379 913.80691,76.951511 910.65346,75.231418 907.5,73.511324 890.7049,73.170648 873.9098,72.829972 872.4549,74.037431 871,75.244889 v 12.210889 12.210889 l 0.74273,0.742733 0.74273,0.74273 18.00727,-0.32607 L 908.5,100.5 Z m -6.2847,-38.019719 3.01281,-1.759575 2.2534,-3.343817 L 913,51.704234 V 48.302457 44.90068 l -1.51693,-2.933413 -1.51692,-2.933413 -3.23308,-1.75061 L 903.5,35.532634 888.71385,35.173875 873.9277,34.815116 872.46385,36.030003 871,37.244889 V 48.922445 60.6 l 1.25,1.309868 1.25,1.309868 14.48379,-0.654358 14.48379,-0.654359 z m 80.95428,49.389197 -1.61143,-2.45936 0.70385,-3.29064 0.70386,-3.29064 1.00697,-1.25 1.00697,-1.25 h 4.17755 4.17756 l 1.2,1.2 1.2,1.2 v 4.6 4.6 l -1.2,1.2 -1.2,1.2 h -4.27695 -4.27694 z M 2502,111.11836 2498.5,110.5 l -0.3111,-4.3239 -0.1944,-2.70244 -0.1167,-1.62147 1.1835,-1.42609 1.1836,-1.4261 h 3.6775 3.6776 l 1.2,1.2 1.2,1.2 v 3.72857 3.72857 l -1.5714,1.57143 -1.5715,1.57143 -0.6785,-0.13164 -0.6786,-0.13164 z m 755.4576,-0.36836 -0.4797,-1.25 0.261,-42.5 0.2611,-42.5 h 31.5 31.5 v 5 5 l -25.2879,0.5 -25.2878,0.5 -1.0277,1.5 -1.0277,1.5 0.5362,11.387355 0.5363,11.387354 0.6102,0.612646 0.6103,0.612645 22.1691,0.5 22.169,0.5 0.3145,3.819788 0.3146,3.819788 -1.3065,1.574174 -1.3064,1.574174 -19.7595,-0.549974 -19.7595,-0.549975 -2.0268,0.530008 -2.0267,0.530009 0.2781,13.126004 0.2782,13.126004 18,0.62519 18,0.62519 7.7309,0.12481 7.731,0.12481 0.6275,2.5 0.6274,2.5 -0.6274,2.5 -0.6275,2.5 h -31.5123 -31.5124 z m 141.2552,0.62943 L 3398,110.66667 3397.9847,74.583333 3397.9694,38.5 3397.024,37 3396.0786,35.5 3382.7893,35 3369.5,34.5 v -5 -5 l 33.3811,-0.263644 35.6761,-0.467641 -0.252,11.414403 -14.306,0.316882 -14,0.724875 -0.2195,0.137562 -0.2194,0.137563 -0.5306,37.5 -0.5305,37.5 -4.5372,0.2961 -4.5373,0.2961 z M 3491.2394,68.75 3491.5,25.5 l 5.0908,-0.296739 5.0908,-0.29674 0.6391,17.670077 0.6391,17.670077 1.1426,1.376662 1.1425,1.376663 20.1275,-0.01531 20.1276,-0.01531 1.5,-0.946122 1.5,-0.946122 0.5,-18.288565 0.5,-18.288565 4.3239,-0.311109 4.3239,-0.311109 1.4261,1.183554 1.4261,1.183553 V 67.922445 109.6 l -1.2,1.2 -1.2,1.2 h -3.2182 -3.2182 l -1.5818,-0.60699 L 3549,110.78602 V 92.928195 75.070368 l -1.9226,-1.028941 -1.9226,-1.028941 -20.0343,0.408081 -20.0342,0.408081 -0.9208,0.569045 -0.9207,0.569044 -0.7308,18.516632 L 3501.7832,112 h -5.4022 -5.4022 z M 3757.8485,81.358505 3757.697,50.5 l 0.1383,-12.324057 0.1382,-12.324057 0.5723,-0.925943 L 3759.118,24 h 17.3045 17.3045 l 5.3822,1.020705 5.3821,1.020705 6.2277,2.914275 6.2277,2.914275 4.874,4.55911 4.8741,4.55911 3.151,6.25591 3.1511,6.25591 1.0016,5.38649 1.0015,5.386489 v 5.153412 5.153411 l -1.5329,5.885236 -1.5329,5.885235 -2.6834,4.93027 -2.6834,4.930271 -4.4632,3.928696 -4.4633,3.9287 -7.5185,3.7159 -7.5185,3.71589 -22.3019,0.3585 -22.302,0.35851 z m 42.1669,18.5661 3.5154,-0.875338 4.6225,-2.931511 4.6225,-2.931511 3.1852,-4.629569 3.1852,-4.629569 1.5481,-4.543406 1.5481,-4.543405 -0.4345,-8.27839 -0.4345,-8.278391 -2.7268,-5.573361 -2.7268,-5.573361 -3.4877,-3.062257 -3.4877,-3.062257 -3.8514,-1.964853 -3.8515,-1.964854 -6.3707,-1.033732 -6.3708,-1.033732 -8.7148,-0.0076 -8.7148,-0.0076 -1.1894,2.222261 -1.1893,2.22226 0.6739,30.02774 0.6738,30.027739 1.6632,1.243962 1.6631,1.24397 11.5672,-0.594 11.5671,-0.59399 z m 77.4136,10.750985 -0.5486,-1.42971 0.3098,-4.8143 0.3098,-4.814295 3.4065,-0.877779 3.4064,-0.87778 2.3283,0.584367 2.3283,0.584366 0.6581,2.621981 0.6581,2.62198 -0.8929,3.61279 -0.8928,3.61279 -5.2612,0.30265 -5.2612,0.30264 z"
         id="path2"
         sodipodi:nodetypes="ccccccccccccccccccccccccccccccccccccccccccccccccccccccccccccccccccccccccccccccccccccccccccccccccccccccccccccccccccccccccccccccccccccccccccccccccccccccccccccccccccccccccccccccccccccccccccccccccccccccccccccccccccccccccccccccccccccccccccccccccccccccccccccccccccccccccccccccccccccccccccccccccccccccccccccccccccccccccccccccccccccccccccccccccccccccccccccccccccccccccccccccccccccccccccccccccccccccccccccccccccccccccccccccccccccccccccccccccccccccccccccccccccccccccccccccccccccccccccccccccccccccccccccccccccccccccccccccccccccccccccccccccccccccccccccccccccccccccccccccccccccccccccccccccccccccccccccccccccccccccccccccccccccccccccccccccccccccccccccccccccccccccccccccccccccccccccccccccccccccccccccccccccccccccccccccccccccccccccccccccccccccccccccccccccccccccccccccccccccccccccccccccccccccccccccccccccccccccccccccccccccccccccccccccccccccccccccccccccccccccccccccccccccccccccccccccccccccccc" />
    </g>
  </g>
</svg>
