<svg xmlns="http://www.w3.org/2000/svg" width="190" zoomAndPan="magnify" viewBox="0 0 142.5 201.000001" height="268" preserveAspectRatio="xMidYMid meet" version="1.0">
  <defs>
    <linearGradient id="vertical-grass" x1="0" y1="0" x2="1" y2="1">
      <stop offset="0" stop-color="#73d489"/>
      <stop offset="1" stop-color="#43a85e"/>
    </linearGradient>
    <pattern id="vertical-stripes" width="130.5" height="24" patternUnits="userSpaceOnUse">
      <rect width="130.5" height="12" fill="#ffffff" opacity="0.08"/>
    </pattern>
  </defs>
  <rect width="142.5" height="201.000001" fill="#f8fafc"/>
  <rect x="6" y="6" width="130.5" height="189" rx="4" fill="url(#vertical-grass)"/>
  <rect x="6" y="6" width="130.5" height="189" rx="4" fill="url(#vertical-stripes)"/>
  <g fill="none" stroke="#ffffff" stroke-linecap="round" stroke-linejoin="round">
    <rect x="6" y="6" width="130.5" height="189" rx="4" stroke-width="1.55"/>
    <line x1="6" y1="100.5" x2="136.5" y2="100.5" stroke-width="1.25"/>
    <circle cx="71.25" cy="100.5" r="13.4" stroke-width="1.25"/>
    <rect x="31.25" y="6" width="80" height="35" stroke-width="1.25"/>
    <rect x="49.25" y="6" width="44" height="13" stroke-width="1.25"/>
    <path d="M 59.3 41 A 13.6 13.6 0 0 0 83.2 41" stroke-width="1.15"/>
    <rect x="31.25" y="160" width="80" height="35" stroke-width="1.25"/>
    <rect x="49.25" y="182" width="44" height="13" stroke-width="1.25"/>
    <path d="M 59.3 160 A 13.6 13.6 0 0 1 83.2 160" stroke-width="1.15"/>
    <path d="M 6 14 A 8 8 0 0 0 14 6 M 128.5 6 A 8 8 0 0 0 136.5 14 M 14 195 A 8 8 0 0 0 6 187 M 136.5 187 A 8 8 0 0 0 128.5 195" stroke-width="0.95" opacity="0.9"/>
  </g>
  <g fill="#ffffff">
    <circle cx="71.25" cy="100.5" r="1.35"/>
    <circle cx="71.25" cy="28.5" r="1.05"/>
    <circle cx="71.25" cy="172.5" r="1.05"/>
  </g>
  <rect x="58.25" y="2.8" width="26" height="3.1" rx="0.8" fill="#e5e7eb" stroke="#ffffff" stroke-width="0.75"/>
  <rect x="58.25" y="195.1" width="26" height="3.1" rx="0.8" fill="#e5e7eb" stroke="#ffffff" stroke-width="0.75"/>
</svg>
