<svg xmlns="http://www.w3.org/2000/svg" width="169" zoomAndPan="magnify" viewBox="0 0 126.75 89.999999" height="120" preserveAspectRatio="xMidYMid meet" version="1.0">
  <defs>
    <linearGradient id="horizontal-grass" x1="0" y1="0" x2="1" y2="1">
      <stop offset="0" stop-color="#73d489"/>
      <stop offset="1" stop-color="#43a85e"/>
    </linearGradient>
    <pattern id="horizontal-stripes" width="18" height="80" patternUnits="userSpaceOnUse">
      <rect width="9" height="80" fill="#ffffff" opacity="0.08"/>
    </pattern>
  </defs>
  <rect width="126.75" height="89.999999" fill="#f8fafc"/>
  <rect x="5" y="5" width="116.75" height="80" rx="3" fill="url(#horizontal-grass)"/>
  <rect x="5" y="5" width="116.75" height="80" rx="3" fill="url(#horizontal-stripes)"/>
  <g fill="none" stroke="#ffffff" stroke-linecap="round" stroke-linejoin="round">
    <rect x="5" y="5" width="116.75" height="80" rx="3" stroke-width="1.4"/>
    <line x1="63.375" y1="5" x2="63.375" y2="85" stroke-width="1.15"/>
    <circle cx="63.375" cy="45" r="10.5" stroke-width="1.15"/>
    <rect x="5" y="23" width="18.5" height="44" stroke-width="1.15"/>
    <rect x="5" y="34" width="7.5" height="22" stroke-width="1.15"/>
    <path d="M 23.5 34.8 A 12.4 12.4 0 0 1 23.5 55.2" stroke-width="1.05"/>
    <rect x="103.25" y="23" width="18.5" height="44" stroke-width="1.15"/>
    <rect x="114.25" y="34" width="7.5" height="22" stroke-width="1.15"/>
    <path d="M 103.25 34.8 A 12.4 12.4 0 0 0 103.25 55.2" stroke-width="1.05"/>
    <path d="M 5 11 A 6 6 0 0 0 11 5 M 115.75 5 A 6 6 0 0 0 121.75 11 M 11 85 A 6 6 0 0 0 5 79 M 121.75 79 A 6 6 0 0 0 115.75 85" stroke-width="0.9" opacity="0.9"/>
  </g>
  <g fill="#ffffff">
    <circle cx="63.375" cy="45" r="1.15"/>
    <circle cx="16.7" cy="45" r="0.95"/>
    <circle cx="110.05" cy="45" r="0.95"/>
  </g>
  <rect x="2.5" y="38" width="2.6" height="14" rx="0.6" fill="#e5e7eb" stroke="#ffffff" stroke-width="0.7"/>
  <rect x="121.65" y="38" width="2.6" height="14" rx="0.6" fill="#e5e7eb" stroke="#ffffff" stroke-width="0.7"/>
</svg>
