<svg xmlns="http://www.w3.org/2000/svg" viewBox="0 0 610.000000 630.000000" width="610" height="630">
  <g transform="translate(0.000000,630.000000) scale(1.000000,-1.000000)"
fill="#000000" stroke="none">
    <path fill="#001848" stroke="none" d="M294 615 c-52 -3 -104 -21 -147 -50 -8 -5 -15 -9 -16 -9 0 0 -1 -1
-1 -1 0 0 -4 -4 -9 -8 -55 -46 -92 -112 -103 -183 -8 -53 -2 -112 18 -161 18
-45 44 -82 82 -114 5 -5 9 -10 9 -10 0 -1 0 -1 1 -1 1 1 20 -13 19 -14 0 0 1
-1 1 -1 2 0 7 -3 6 -4 0 -1 0 -1 1 -1 0 1 3 0 6 -2 3 -2 8 -5 10 -6 2 -1 4 -3
3 -3 0 -1 0 -1 1 -1 0 1 4 0 8 -2 69 -35 150 -41 223 -14 20 7 43 19 60 30 3
2 6 4 7 3 1 0 1 0 1 1 0 0 5 5 13 11 59 47 98 115 110 192 2 13 4 33 4 40 l0
5 -86 0 c-76 0 -87 0 -88 -1 -1 -1 -2 -2 -2 -1 -1 0 -1 0 -1 -1 1 -1 -25 -28
-26 -28 -1 0 -1 -1 -2 -2 l0 -3 83 0 82 0 0 -3 c-1 -2 -1 -6 -2 -8 0 -4 0 -4
-1 -2 -1 1 -1 1 0 -2 0 -2 -1 -8 -3 -15 -13 -52 -44 -102 -84 -137 -17 -14
-41 -31 -44 -30 0 1 -1 1 -1 0 1 -1 -2 -2 -3 -1 -1 0 -1 0 -1 -1 1 -2 -22 -12
-40 -17 -24 -8 -44 -10 -72 -10 -37 0 -66 6 -99 21 -13 5 -35 17 -34 19 0 0
-1 1 -1 0 -3 -1 -36 26 -50 40 -15 16 -30 36 -42 57 -6 11 -12 25 -11 26 0 1
0 1 -1 1 -1 -1 -7 14 -11 29 -16 57 -14 117 8 171 21 55 59 98 113 129 28 16
59 27 92 32 11 2 18 2 37 2 23 0 33 -1 54 -5 25 -5 60 -19 81 -32 l4 -3 -14
-18 c-7 -9 -13 -18 -13 -19 0 -2 4 -5 6 -5 0 0 3 3 6 6 2 3 5 6 5 5 1 0 1 0 1
1 -1 0 8 13 19 28 21 26 21 26 19 28 -8 6 -35 21 -48 27 -30 13 -68 23 -98 24
-23 2 -27 2 -39 1z m50 -11 c41 -6 76 -17 111 -38 6 -3 10 -6 10 -7 1 -1 -1
-4 -4 -7 -2 -4 -4 -7 -5 -7 0 0 -4 2 -9 5 -5 3 -11 7 -15 8 -3 2 -6 4 -6 4 1
0 0 1 -1 1 -1 0 -7 2 -14 5 -21 9 -45 15 -71 18 -14 2 -50 2 -63 0 -39 -6 -70
-17 -100 -34 -6 -3 -11 -6 -11 -5 0 0 -1 0 -2 -1 0 -1 0 -1 1 0 3 1 0 -1 -10
-9 -7 -4 -12 -7 -13 -7 0 -1 -2 -1 -2 -2 -1 -1 -1 -1 1 0 1 1 -1 -1 -3 -3 -34
-30 -53 -54 -69 -87 -20 -40 -28 -77 -28 -121 0 -74 28 -142 80 -195 31 -31
65 -54 102 -68 14 -4 38 -10 53 -13 16 -2 54 -2 70 0 39 6 79 22 109 43 57 41
97 102 112 171 3 12 5 28 5 30 0 1 -22 1 -77 1 l-77 0 7 8 8 8 79 0 79 0 -1
-6 c-6 -76 -35 -141 -85 -192 -81 -81 -200 -103 -305 -57 -42 18 -86 52 -116
91 -4 5 -7 10 -7 10 1 0 0 1 -1 2 -3 2 -18 28 -18 30 1 0 1 1 0 1 -1 -1 -10
19 -15 33 -19 51 -24 114 -12 167 4 17 9 32 10 31 1 -1 1 -1 1 1 -2 4 14 40
27 59 3 5 6 9 6 8 1 0 1 0 1 1 -2 2 25 34 40 48 48 43 106 69 170 75 10 1 47
1 58 0z M26 338 c0 -3 0 -3 1 -2 0 1 0 3 0 4 -1 1 -1 0 -1 -2z M26 299 c0 -2
0 -3 1 -2 0 1 0 3 0 4 -1 1 -1 0 -1 -2z M423 290 c-1 -1 -2 -2 -1 -2 0 0 1 1
2 2 0 1 1 2 1 2 -1 0 -2 -1 -2 -2z M586 274 c0 -1 0 -1 1 0 0 1 0 1 0 2 -1 0
-1 -1 -1 -2z M582 525 c0 -1 2 -2 2 -2 0 0 -1 1 -1 2 -1 1 -3 2 -3 2 0 0 1 -1
2 -2z M599 504 c0 -2 0 -3 1 -2 0 1 0 3 0 4 -1 1 -1 0 -1 -2z M560 466 c2 0 4
0 5 0 1 1 0 1 -2 1 -3 0 -4 0 -3 -1z M492 448 c-24 -17 -68 -49 -119 -87 -11
-7 -21 -14 -21 -13 0 0 -1 0 -2 -1 0 -1 0 -1 1 -1 2 2 0 0 -6 -5 -3 -2 -6 -4
-6 -3 -1 0 -1 0 -1 -1 0 0 -5 -6 -12 -11 -8 -6 -14 -12 -15 -13 -2 -1 -2 -1
-4 1 0 1 -4 5 -8 10 -4 5 -7 10 -7 10 0 1 -1 1 -1 1 -1 0 -1 0 -1 1 0 1 0 1
-1 1 -1 -1 -6 4 -5 5 0 1 0 1 -1 1 -1 0 -1 0 -1 1 0 1 0 1 -1 1 0 -1 -4 2 -9
6 -11 8 -23 15 -31 16 l-6 1 5 5 c3 3 6 8 8 11 2 5 3 7 3 17 0 9 -1 11 -3 17
-4 7 -10 13 -16 17 -7 3 -21 4 -29 2 -16 -5 -26 -19 -26 -37 0 -12 2 -19 10
-27 l7 -6 -6 -2 c-9 -3 -20 -9 -29 -16 -5 -3 -9 -5 -9 -5 -1 0 -1 -1 -1 -2 0
0 -3 -4 -7 -7 -3 -3 -6 -6 -5 -5 0 1 0 1 -1 1 0 -1 0 -2 0 -2 0 -1 -12 -16
-12 -15 0 0 -1 -1 -1 -1 0 -1 -1 -4 -3 -8 -8 -12 -15 -31 -18 -45 -3 -20 -2
-48 3 -55 2 -4 8 -6 13 -6 9 0 15 6 17 15 4 32 15 59 31 75 9 9 19 15 28 18
l4 1 4 -8 c8 -15 21 -35 30 -47 2 -2 4 -5 3 -5 0 -1 0 -1 1 -1 0 1 6 -4 12
-10 6 -6 15 -14 20 -18 20 -15 44 -26 66 -31 5 -1 10 -2 10 -3 0 0 -8 -10 -17
-22 -30 -41 -32 -44 -32 -52 0 -6 2 -10 7 -14 3 -2 4 -2 10 -2 5 1 7 1 13 5
15 11 57 47 82 72 20 20 35 37 39 45 5 10 5 24 1 29 -3 2 -7 3 -50 4 -20 1
-39 1 -44 2 l-8 0 3 4 c22 27 107 111 179 174 9 8 17 16 17 17 1 2 -1 6 -4 6
-3 0 -75 -65 -131 -119 -12 -12 -23 -21 -23 -21 -1 0 -1 0 -1 -1 1 0 -30 -34
-31 -33 -1 0 -1 -1 -1 -1 0 -1 0 -1 -1 -1 -1 0 -1 -1 -2 -2 0 -1 -2 -5 -5 -8
-10 -11 -14 -17 -14 -20 0 -5 1 -5 56 -6 28 -1 51 -2 52 -3 2 0 1 -12 -2 -17
-4 -7 -16 -21 -38 -43 -21 -21 -47 -44 -49 -45 0 0 -1 0 -2 0 0 -1 0 -1 1 -1
1 1 0 0 -1 -1 -2 -2 -4 -3 -4 -2 -1 0 -1 0 -1 -1 1 -1 -11 -11 -14 -11 -1 -1
-1 -1 -1 -2 0 -1 -7 -7 -12 -9 -5 -2 -7 -2 -10 0 -2 1 -3 7 -1 11 2 3 18 24
37 50 8 11 15 21 15 22 0 3 -3 5 -13 6 -29 6 -57 20 -82 41 -9 8 -23 24 -22
25 0 1 0 1 -1 1 -2 -1 -15 17 -13 19 0 1 0 1 -1 1 -1 -1 -8 10 -8 12 1 0 0 1
0 1 -1 0 -4 4 -7 10 -3 6 -6 11 -7 12 -3 2 -11 0 -21 -5 -5 -3 -9 -4 -10 -4
-1 0 -1 0 -1 -1 1 0 -2 -2 -5 -5 -3 -3 -7 -6 -8 -7 -1 -2 -3 -3 -3 -2 -1 0 -1
0 -1 0 1 -2 -5 -10 -6 -9 -1 0 -1 0 -1 -1 1 0 0 -3 -2 -6 -8 -13 -15 -32 -18
-53 -2 -7 -3 -14 -4 -14 -1 -2 -8 -1 -9 0 -3 2 -4 9 -4 24 0 10 0 16 2 24 6
27 18 51 37 70 14 14 28 23 46 29 9 3 10 3 23 3 12 0 14 0 22 -2 20 -8 35 -20
54 -43 l8 -10 -11 -11 c-11 -11 -13 -14 -10 -17 3 -3 6 -1 17 10 11 12 32 30
46 41 15 12 98 73 111 82 3 1 5 3 6 2 0 0 0 0 0 1 -1 1 17 13 19 14 0 0 1 0 2
0 0 1 0 1 -1 1 0 -1 -1 -1 -1 -1 0 1 5 4 7 4 0 1 1 1 2 1 0 1 0 1 -1 1 -3 -2
4 3 15 11 6 4 11 8 12 9 0 1 0 3 -1 4 -2 4 -4 3 -22 -9z m-267 -21 c2 -1 3 -2
2 -2 0 -1 1 -1 1 0 2 0 9 -7 11 -12 3 -7 3 -19 0 -25 -7 -15 -22 -20 -37 -13
-17 7 -21 31 -8 45 7 8 20 11 31 7z M252 394 c0 -1 0 -1 1 0 0 1 0 1 0 2 -1 0
-1 -1 -1 -2z M53 287 c0 -1 0 -1 1 0 0 1 0 1 0 2 -1 0 -1 -1 -1 -2z M558 274
c0 -1 0 -1 1 -1 1 0 1 0 1 1 0 1 0 1 -1 1 -1 0 -1 0 -1 -1z M348 240 c1 0 3 0
3 0 1 1 0 1 -1 1 -2 0 -3 0 -2 -1z M429 237 c2 0 4 0 6 0 1 1 0 1 -3 1 -4 0
-5 -1 -3 -1z M306 107 c0 -1 1 -1 1 -1 1 0 1 0 1 1 -1 1 -2 1 -2 1 -1 0 -1 0
0 -1z M351 14 c1 0 1 0 2 0 0 1 -1 1 -2 1 -1 0 -1 0 0 -1z"/>
    <path fill="#a87848" stroke="none" d="M548 540 c-10 -5 -16 -10 -21 -21 -4 -8 -4 -18 -1 -27 2 -7 3 -8 9
-14 9 -9 15 -11 29 -11 7 0 10 1 14 3 7 3 15 11 18 18 2 5 3 7 3 16 0 9 -1 11
-3 16 -4 8 -10 14 -18 18 -6 3 -8 4 -15 4 -8 0 -10 0 -15 -2z m24 -8 c18 -7
24 -32 11 -47 -6 -7 -12 -9 -21 -9 -6 0 -8 0 -13 2 -11 6 -16 14 -16 26 0 6 1
9 2 13 3 6 9 11 15 14 5 2 16 3 22 1z M483 478 c-46 -35 -56 -42 -71 -54 -22
-17 -25 -20 -24 -20 0 -1 12 7 26 17 39 28 71 51 81 57 5 3 10 7 10 8 1 2 -1
5 -3 5 -2 0 -10 -6 -19 -13z M200 99 c-1 -1 -2 -2 -2 -3 1 -4 23 -15 42 -21
25 -8 44 -11 70 -11 35 0 66 7 98 22 5 3 10 5 10 6 2 2 0 6 -2 6 -1 1 -5 -1
-11 -3 -19 -9 -39 -15 -61 -20 -12 -2 -42 -3 -56 -1 -11 1 -33 5 -41 8 -10 3
-28 11 -36 15 -4 2 -8 4 -8 4 0 0 -2 -1 -3 -2z"/>
  </g>
</svg>
